<svg width="100" height="50" viewBox="0 0 100 50" fill="none" xmlns="http://www.w3.org/2000/svg">
<path d="M31.7867 35C26.8427 35 23 38.3004 23 42.2034C23 46.1496 26.8903 49.4068 31.7867 49.4068C34.9228 49.4068 37.7081 48.0537 39.2678 45.9828C39.2972 45.9437 39.3168 45.9003 39.3254 45.8549C39.334 45.8096 39.3314 45.7633 39.3177 45.7188C39.3041 45.6742 39.2797 45.6324 39.2459 45.5958C39.2122 45.5592 39.1698 45.5285 39.1213 45.5055L35.0575 43.5822C34.9656 43.5389 34.857 43.5258 34.7537 43.5455C34.6504 43.5652 34.5601 43.6163 34.501 43.6885C34.2031 44.0548 33.7995 44.3551 33.326 44.5628C32.8524 44.7705 32.3237 44.879 31.7867 44.8788C29.9869 44.8788 28.5224 43.6783 28.5224 42.2034C28.5224 40.7279 29.9869 39.5279 31.7867 39.5279C32.8784 39.5279 33.8933 39.9727 34.501 40.7183C34.56 40.7906 34.6503 40.8418 34.7537 40.8615C34.857 40.8812 34.9656 40.868 35.0575 40.8245L39.1213 38.9012C39.1698 38.8783 39.2122 38.8476 39.2459 38.811C39.2797 38.7743 39.3041 38.7325 39.3177 38.688C39.3314 38.6435 39.334 38.5972 39.3254 38.5519C39.3168 38.5065 39.2972 38.463 39.2678 38.424C38.481 37.3772 37.3804 36.513 36.0709 35.9136C34.7614 35.3143 33.2865 34.9998 31.7867 35ZM31.7867 37.1172C34.0185 37.1172 35.975 38.0837 37.0682 39.5339L34.8788 40.57C34.8517 40.5826 34.8166 40.5778 34.7998 40.5544C34.469 40.1479 34.021 39.8146 33.4953 39.5842C32.9697 39.3538 32.3827 39.2335 31.7867 39.2338C30.8263 39.2347 29.9057 39.5479 29.2266 40.1046C28.5475 40.6613 28.1655 41.4161 28.1644 42.2034C28.1644 42.7436 28.3408 43.2509 28.6498 43.6879L26.935 44.5001C26.9071 44.5133 26.8827 44.5311 26.8634 44.5522C26.8441 44.5734 26.8302 44.5975 26.8226 44.6232C26.8149 44.6489 26.8136 44.6756 26.8189 44.7017C26.8241 44.7277 26.8357 44.7527 26.853 44.775C27.3805 45.4559 28.1094 46.0166 28.9719 46.4049C29.8345 46.7931 30.8027 46.9965 31.7867 46.996C32.7825 46.9965 33.762 46.7882 34.6321 46.3909C35.5021 45.9937 36.2338 45.4207 36.7577 44.7264L38.9419 45.7601C38.9489 45.7633 38.955 45.7676 38.9598 45.7728C38.9646 45.778 38.9681 45.784 38.97 45.7904C38.972 45.7967 38.9723 45.8033 38.971 45.8098C38.9697 45.8162 38.9668 45.8224 38.9624 45.8279C38.2111 46.8345 37.1562 47.6655 35.8993 48.2408C34.6425 48.8161 33.2261 49.1164 31.7867 49.1126C27.1393 49.1126 23.3588 46.0128 23.3588 42.2034C23.3588 40.9458 23.7703 39.7662 24.4893 38.7494L26.2101 39.5633C26.3199 39.6162 26.4627 39.5874 26.5315 39.4973C27.0898 38.7681 27.8649 38.1671 28.7841 37.7506C29.7033 37.3342 30.7365 37.1166 31.7867 37.1172ZM39.5285 40.3725C39.4422 40.372 39.3573 40.3902 39.2824 40.4254L36.2444 41.863C36.1719 41.8976 36.1118 41.9471 36.0699 42.0067C36.0281 42.0662 36.0061 42.1338 36.0061 42.2025C36.0061 42.2712 36.0281 42.3388 36.0699 42.3983C36.1118 42.4579 36.1719 42.5074 36.2444 42.5419L39.2824 43.9802C39.6002 44.1303 40 43.9418 40 43.6405V40.7651C39.9998 40.6621 39.9503 40.5632 39.8621 40.4898C39.7739 40.4164 39.6541 40.3743 39.5285 40.3725ZM39.043 41.444V42.9615L37.4394 42.2034L39.043 41.444Z" fill="#FF9255"/>
<path d="M16.35 28C15.01 25.62 13.56 23.27 12 20.95C10.44 18.63 8.78 16.44 7.02 14.38V28H2.4V7.21H6.21C6.87 7.87 7.6 8.68 8.4 9.64C9.2 10.6 10.01 11.63 10.83 12.73C11.67 13.81 12.5 14.94 13.32 16.12C14.14 17.28 14.91 18.4 15.63 19.48V7.21H20.28V28H16.35ZM24.0258 20.23C24.0258 18.83 24.2358 17.61 24.6558 16.57C25.0958 15.51 25.6658 14.63 26.3658 13.93C27.0658 13.23 27.8658 12.7 28.7658 12.34C29.6858 11.98 30.6258 11.8 31.5858 11.8C33.8258 11.8 35.5958 12.49 36.8958 13.87C38.1958 15.23 38.8458 17.24 38.8458 19.9C38.8458 20.16 38.8358 20.45 38.8158 20.77C38.7958 21.07 38.7758 21.34 38.7558 21.58H28.6158C28.7158 22.5 29.1458 23.23 29.9058 23.77C30.6658 24.31 31.6858 24.58 32.9658 24.58C33.7858 24.58 34.5858 24.51 35.3658 24.37C36.1658 24.21 36.8158 24.02 37.3158 23.8L37.9158 27.43C37.6758 27.55 37.3558 27.67 36.9558 27.79C36.5558 27.91 36.1058 28.01 35.6058 28.09C35.1258 28.19 34.6058 28.27 34.0458 28.33C33.4858 28.39 32.9258 28.42 32.3658 28.42C30.9458 28.42 29.7058 28.21 28.6458 27.79C27.6058 27.37 26.7358 26.8 26.0358 26.08C25.3558 25.34 24.8458 24.47 24.5058 23.47C24.1858 22.47 24.0258 21.39 24.0258 20.23ZM34.5258 18.52C34.5058 18.14 34.4358 17.77 34.3158 17.41C34.2158 17.05 34.0458 16.73 33.8058 16.45C33.5858 16.17 33.2958 15.94 32.9358 15.76C32.5958 15.58 32.1658 15.49 31.6458 15.49C31.1458 15.49 30.7158 15.58 30.3558 15.76C29.9958 15.92 29.6958 16.14 29.4558 16.42C29.2158 16.7 29.0258 17.03 28.8858 17.41C28.7658 17.77 28.6758 18.14 28.6158 18.52H34.5258ZM51.8953 18.94C51.4953 20.46 51.0653 21.97 50.6053 23.47C50.1653 24.97 49.6953 26.48 49.1953 28H45.7153C45.3553 27.16 44.9653 26.16 44.5453 25C44.1253 23.84 43.6853 22.58 43.2253 21.22C42.7853 19.84 42.3253 18.39 41.8453 16.87C41.3853 15.33 40.9353 13.78 40.4953 12.22H45.2053C45.3653 12.94 45.5353 13.73 45.7153 14.59C45.9153 15.43 46.1153 16.3 46.3153 17.2C46.5353 18.1 46.7553 19.01 46.9753 19.93C47.2153 20.83 47.4553 21.7 47.6953 22.54C47.9553 21.66 48.2053 20.76 48.4453 19.84C48.7053 18.92 48.9453 18.02 49.1653 17.14C49.4053 16.24 49.6253 15.38 49.8253 14.56C50.0453 13.72 50.2353 12.94 50.3953 12.22H53.6353C53.7953 12.94 53.9753 13.72 54.1753 14.56C54.3753 15.38 54.5853 16.24 54.8053 17.14C55.0253 18.02 55.2553 18.92 55.4953 19.84C55.7353 20.76 55.9853 21.66 56.2453 22.54C56.4853 21.7 56.7253 20.83 56.9653 19.93C57.2053 19.01 57.4253 18.1 57.6253 17.2C57.8453 16.3 58.0453 15.43 58.2253 14.59C58.4253 13.73 58.6053 12.94 58.7653 12.22H63.4153C62.9753 13.78 62.5153 15.33 62.0353 16.87C61.5753 18.39 61.1153 19.84 60.6553 21.22C60.2153 22.58 59.7753 23.84 59.3353 25C58.9153 26.16 58.5253 27.16 58.1653 28H54.6853C54.1853 26.48 53.6953 24.97 53.2153 23.47C52.7353 21.97 52.2953 20.46 51.8953 18.94Z" fill="#FF9255"/>
<path d="M52.77 40.8166C52.77 39.3766 52.58 38.3566 52.2 37.7566C51.84 37.1566 51.21 36.8566 50.31 36.8566C50.03 36.8566 49.74 36.8766 49.44 36.9166C49.14 36.9366 48.85 36.9666 48.57 37.0066V49.1866H44.1V33.9466C44.48 33.8466 44.92 33.7466 45.42 33.6466C45.94 33.5266 46.48 33.4266 47.04 33.3466C47.62 33.2466 48.21 33.1766 48.81 33.1366C49.41 33.0766 50 33.0466 50.58 33.0466C51.72 33.0466 52.64 33.1966 53.34 33.4966C54.06 33.7766 54.65 34.1166 55.11 34.5166C55.75 34.0566 56.48 33.6966 57.3 33.4366C58.14 33.1766 58.91 33.0466 59.61 33.0466C60.87 33.0466 61.9 33.2266 62.7 33.5866C63.52 33.9266 64.17 34.4166 64.65 35.0566C65.13 35.6966 65.46 36.4566 65.64 37.3366C65.82 38.2166 65.91 39.1966 65.91 40.2766V49.1866H61.44V40.8166C61.44 39.3766 61.25 38.3566 60.87 37.7566C60.51 37.1566 59.88 36.8566 58.98 36.8566C58.74 36.8566 58.4 36.9166 57.96 37.0366C57.54 37.1566 57.19 37.3066 56.91 37.4866C57.05 37.9466 57.14 38.4366 57.18 38.9566C57.22 39.4566 57.24 39.9966 57.24 40.5766V49.1866H52.77V40.8166ZM69.2191 41.4166C69.2191 40.0166 69.4291 38.7966 69.8491 37.7566C70.2891 36.6966 70.8591 35.8166 71.5591 35.1166C72.2591 34.4166 73.0591 33.8866 73.9591 33.5266C74.8791 33.1666 75.8191 32.9866 76.7791 32.9866C79.0191 32.9866 80.7891 33.6766 82.0891 35.0566C83.3891 36.4166 84.0391 38.4266 84.0391 41.0866C84.0391 41.3466 84.0291 41.6366 84.0091 41.9566C83.9891 42.2566 83.9691 42.5266 83.9491 42.7666H73.8091C73.9091 43.6866 74.3391 44.4166 75.0991 44.9566C75.8591 45.4966 76.8791 45.7666 78.1591 45.7666C78.9791 45.7666 79.7791 45.6966 80.5591 45.5566C81.3591 45.3966 82.0091 45.2066 82.5091 44.9866L83.1091 48.6166C82.8691 48.7366 82.5491 48.8566 82.1491 48.9766C81.7491 49.0966 81.2991 49.1966 80.7991 49.2766C80.3191 49.3766 79.7991 49.4566 79.2391 49.5166C78.6791 49.5766 78.1191 49.6066 77.5591 49.6066C76.1391 49.6066 74.8991 49.3966 73.8391 48.9766C72.7991 48.5566 71.9291 47.9866 71.2291 47.2666C70.5491 46.5266 70.0391 45.6566 69.6991 44.6566C69.3791 43.6566 69.2191 42.5766 69.2191 41.4166ZM79.7191 39.7066C79.6991 39.3266 79.6291 38.9566 79.5091 38.5966C79.4091 38.2366 79.2391 37.9166 78.9991 37.6366C78.7791 37.3566 78.4891 37.1266 78.1291 36.9466C77.7891 36.7666 77.3591 36.6766 76.8391 36.6766C76.3391 36.6766 75.9091 36.7666 75.5491 36.9466C75.1891 37.1066 74.8891 37.3266 74.6491 37.6066C74.4091 37.8866 74.2191 38.2166 74.0791 38.5966C73.9591 38.9566 73.8691 39.3266 73.8091 39.7066H79.7191ZM92.0187 45.9766C92.8387 45.9766 93.4187 45.8966 93.7587 45.7366C94.0987 45.5766 94.2687 45.2666 94.2687 44.8066C94.2687 44.4466 94.0487 44.1366 93.6087 43.8766C93.1687 43.5966 92.4987 43.2866 91.5987 42.9466C90.8987 42.6866 90.2587 42.4166 89.6787 42.1366C89.1187 41.8566 88.6387 41.5266 88.2387 41.1466C87.8387 40.7466 87.5287 40.2766 87.3087 39.7366C87.0887 39.1966 86.9787 38.5466 86.9787 37.7866C86.9787 36.3066 87.5287 35.1366 88.6287 34.2766C89.7287 33.4166 91.2387 32.9866 93.1587 32.9866C94.1187 32.9866 95.0387 33.0766 95.9187 33.2566C96.7987 33.4166 97.4987 33.5966 98.0187 33.7966L97.2387 37.2766C96.7187 37.0966 96.1487 36.9366 95.5287 36.7966C94.9287 36.6566 94.2487 36.5866 93.4887 36.5866C92.0887 36.5866 91.3887 36.9766 91.3887 37.7566C91.3887 37.9366 91.4187 38.0966 91.4787 38.2366C91.5387 38.3766 91.6587 38.5166 91.8387 38.6566C92.0187 38.7766 92.2587 38.9166 92.5587 39.0766C92.8787 39.2166 93.2787 39.3766 93.7587 39.5566C94.7387 39.9166 95.5487 40.2766 96.1887 40.6366C96.8287 40.9766 97.3287 41.3566 97.6887 41.7766C98.0687 42.1766 98.3287 42.6266 98.4687 43.1266C98.6287 43.6266 98.7087 44.2066 98.7087 44.8666C98.7087 46.4266 98.1187 47.6066 96.9387 48.4066C95.7787 49.2066 94.1287 49.6066 91.9887 49.6066C90.5887 49.6066 89.4187 49.4866 88.4787 49.2466C87.5587 49.0066 86.9187 48.8066 86.5587 48.6466L87.3087 45.0166C88.0687 45.3166 88.8487 45.5566 89.6487 45.7366C90.4487 45.8966 91.2387 45.9766 92.0187 45.9766Z" fill="#FF9255"/>
<path d="M14.94 28.3966H19.62V49.1866H14.94V40.3666H7.08V49.1866H2.4V28.3966H7.08V36.3466H14.94V28.3966Z" fill="#FF9255"/>
<path d="M72 13.5594H69L82.5 4.23737L96 13.5594H93" stroke="#FF9255" stroke-width="2" stroke-linecap="round" stroke-linejoin="round"/>
<path d="M72 13.5594V21.469C72 22.0683 72.3161 22.6432 72.8787 23.067C73.4413 23.4908 74.2044 23.7289 75 23.7289H90C90.7956 23.7289 91.5587 23.4908 92.1213 23.067C92.6839 22.6432 93 22.0683 93 21.469V13.5594" stroke="#FF9255" stroke-width="2" stroke-linecap="round" stroke-linejoin="round"/>
<path d="M78 23.7288V17.3729C78 16.811 78.3161 16.2721 78.8787 15.8747C79.4413 15.4774 80.2044 15.2542 81 15.2542H84C84.7956 15.2542 85.5587 15.4774 86.1213 15.8747C86.6839 16.2721 87 16.811 87 17.3729V23.7288" stroke="#FF9255" stroke-width="2" stroke-linecap="round" stroke-linejoin="round"/>
</svg>
